<svg width="96" height="96" viewBox="0 0 96 96" fill="none" xmlns="http://www.w3.org/2000/svg">
<path d="M0 48C0 21.4903 21.4903 0 48 0C74.5097 0 96 21.4903 96 48C96 74.5097 74.5097 96 48 96C21.4903 96 0 74.5097 0 48Z" fill="#00EC66"/>
<path d="M52 50C52 51.1046 51.1046 52 50 52H16C14.8954 52 14 51.1046 14 50V45.4607C14 44.6447 14.6841 44 15.5 44C31.2401 44 44 31.2401 44 15.5C44 14.6841 44.6457 14 45.4616 14H50C51.1046 14 52 14.8954 52 16V50Z" fill="white"/>
<path d="M44 46C44 44.8954 44.8954 44 46 44H80C81.1046 44 82 44.8954 82 46V50.5393C82 51.3553 81.3159 52 80.5 52C64.7599 52 52 64.7599 52 80.5C52 81.3159 51.3543 82 50.5384 82H46C44.8954 82 44 81.1046 44 80V46Z" fill="white"/>
</svg>
