<svg width="309" height="64" viewBox="0 0 309 64" fill="none" xmlns="http://www.w3.org/2000/svg">
<path d="M95.936 57.864C91.952 57.864 88.928 56.88 86.864 54.912C84.848 52.944 83.84 50.136 83.84 46.488V9.768H93.344V44.4C93.344 45.936 93.68 47.112 94.352 47.928C95.024 48.696 96.008 49.08 97.304 49.08C97.784 49.08 98.312 48.984 98.888 48.792C99.464 48.552 100.064 48.216 100.688 47.784L104 54.912C102.848 55.776 101.552 56.472 100.112 57C98.72 57.576 97.328 57.864 95.936 57.864ZM78.008 29.064V21H102.344V29.064H78.008Z" fill="white"/>
<path d="M116.769 38.064C116.769 34.176 117.513 30.96 119.001 28.416C120.537 25.872 122.481 23.976 124.833 22.728C127.233 21.48 129.729 20.856 132.321 20.856V30.072C130.113 30.072 128.025 30.336 126.057 30.864C124.137 31.392 122.577 32.256 121.377 33.456C120.177 34.656 119.577 36.192 119.577 38.064H116.769ZM110.073 57V21H119.577V57H110.073Z" fill="white"/>
<path d="M159.098 57L158.81 49.728V38.784C158.81 36.624 158.57 34.776 158.09 33.24C157.658 31.704 156.938 30.528 155.93 29.712C154.97 28.848 153.65 28.416 151.97 28.416C150.434 28.416 149.042 28.752 147.794 29.424C146.546 30.096 145.49 31.128 144.626 32.52L136.274 29.64C136.946 28.104 137.93 26.616 139.226 25.176C140.522 23.688 142.202 22.488 144.266 21.576C146.378 20.616 148.946 20.136 151.97 20.136C155.618 20.136 158.642 20.832 161.042 22.224C163.49 23.616 165.29 25.584 166.442 28.128C167.642 30.624 168.218 33.6 168.17 37.056L167.954 57H159.098ZM149.018 57.864C144.698 57.864 141.338 56.904 138.938 54.984C136.586 53.064 135.41 50.352 135.41 46.848C135.41 43.008 136.682 40.128 139.226 38.208C141.818 36.24 145.442 35.256 150.098 35.256H159.242V42.312H153.41C150.29 42.312 148.13 42.696 146.93 43.464C145.73 44.184 145.13 45.216 145.13 46.56C145.13 47.616 145.61 48.456 146.57 49.08C147.53 49.656 148.874 49.944 150.602 49.944C152.186 49.944 153.578 49.584 154.778 48.864C156.026 48.096 157.01 47.136 157.73 45.984C158.45 44.784 158.81 43.56 158.81 42.312H161.114C161.114 47.208 160.178 51.024 158.306 53.76C156.482 56.496 153.386 57.864 149.018 57.864Z" fill="white"/>
<path d="M175.745 57V21H184.673L185.249 27.624V57H175.745ZM199.577 57V38.568H209.081V57H199.577ZM199.577 38.568C199.577 36.12 199.289 34.224 198.713 32.88C198.185 31.536 197.417 30.576 196.409 30C195.401 29.376 194.225 29.064 192.881 29.064C190.433 29.016 188.537 29.76 187.193 31.296C185.897 32.832 185.249 35.112 185.249 38.136H182.081C182.081 34.296 182.633 31.056 183.737 28.416C184.889 25.728 186.473 23.688 188.489 22.296C190.553 20.856 192.953 20.136 195.689 20.136C198.521 20.136 200.945 20.712 202.961 21.864C204.977 23.016 206.513 24.816 207.569 27.264C208.625 29.664 209.129 32.784 209.081 36.624V38.568H199.577Z" fill="white"/>
<path d="M230.131 57.864C227.827 57.864 225.666 57.528 223.65 56.856C221.634 56.136 219.858 55.128 218.322 53.832C216.786 52.488 215.587 50.856 214.723 48.936L222.859 45.192C223.579 46.344 224.563 47.352 225.811 48.216C227.059 49.032 228.499 49.44 230.131 49.44C231.715 49.44 232.939 49.224 233.803 48.792C234.667 48.312 235.098 47.64 235.098 46.776C235.098 45.912 234.738 45.288 234.018 44.904C233.346 44.472 232.41 44.112 231.21 43.824L227.898 42.96C224.442 42.048 221.707 40.608 219.691 38.64C217.723 36.624 216.738 34.32 216.738 31.728C216.738 28.032 217.914 25.176 220.266 23.16C222.666 21.144 226.051 20.136 230.419 20.136C232.675 20.136 234.762 20.472 236.682 21.144C238.65 21.816 240.331 22.752 241.723 23.952C243.115 25.152 244.075 26.544 244.603 28.128L236.755 31.728C236.419 30.768 235.603 30 234.307 29.424C233.011 28.8 231.715 28.488 230.419 28.488C229.123 28.488 228.115 28.776 227.395 29.352C226.723 29.88 226.387 30.624 226.387 31.584C226.387 32.208 226.723 32.736 227.395 33.168C228.067 33.552 229.027 33.888 230.275 34.176L234.954 35.328C237.306 35.904 239.178 36.84 240.57 38.136C242.01 39.384 243.043 40.8 243.667 42.384C244.339 43.92 244.674 45.432 244.674 46.92C244.674 49.08 244.026 51 242.73 52.68C241.482 54.312 239.754 55.584 237.546 56.496C235.386 57.408 232.915 57.864 230.131 57.864Z" fill="white"/>
<path d="M253.806 57V17.4C253.806 13.56 254.79 10.584 256.758 8.472C258.726 6.312 261.726 5.232 265.758 5.232C267.15 5.232 268.614 5.472 270.15 5.952C271.734 6.432 273.174 7.008 274.47 7.68L270.942 14.52C270.174 14.136 269.478 13.848 268.854 13.656C268.23 13.464 267.654 13.368 267.126 13.368C265.83 13.368 264.87 13.824 264.246 14.736C263.622 15.6 263.31 17.016 263.31 18.984V57H253.806ZM247.83 28.632V21H272.166V28.632H247.83Z" fill="white"/>
<path d="M299.371 57L299.083 49.728V38.784C299.083 36.624 298.843 34.776 298.363 33.24C297.931 31.704 297.211 30.528 296.203 29.712C295.243 28.848 293.923 28.416 292.243 28.416C290.707 28.416 289.315 28.752 288.067 29.424C286.819 30.096 285.763 31.128 284.899 32.52L276.547 29.64C277.219 28.104 278.203 26.616 279.499 25.176C280.795 23.688 282.475 22.488 284.539 21.576C286.651 20.616 289.219 20.136 292.243 20.136C295.891 20.136 298.915 20.832 301.315 22.224C303.763 23.616 305.563 25.584 306.715 28.128C307.915 30.624 308.491 33.6 308.443 37.056L308.227 57H299.371ZM289.291 57.864C284.971 57.864 281.611 56.904 279.211 54.984C276.859 53.064 275.683 50.352 275.683 46.848C275.683 43.008 276.955 40.128 279.499 38.208C282.091 36.24 285.715 35.256 290.371 35.256H299.515V42.312H293.683C290.563 42.312 288.403 42.696 287.203 43.464C286.003 44.184 285.403 45.216 285.403 46.56C285.403 47.616 285.883 48.456 286.843 49.08C287.803 49.656 289.147 49.944 290.875 49.944C292.459 49.944 293.851 49.584 295.051 48.864C296.299 48.096 297.283 47.136 298.003 45.984C298.723 44.784 299.083 43.56 299.083 42.312H301.387C301.387 47.208 300.451 51.024 298.579 53.76C296.755 56.496 293.659 57.864 289.291 57.864Z" fill="white"/>
<path d="M35.7647 33.8824C35.7647 34.9219 34.9219 35.7647 33.8824 35.7647H1.88235C0.842757 35.7647 0 34.9219 0 33.8824V29.61C0 28.8421 0.643824 28.2353 1.41176 28.2353C16.226 28.2353 28.2353 16.226 28.2353 1.41176C28.2353 0.643837 28.843 0 29.6109 0H33.8824C34.9219 0 35.7647 0.842758 35.7647 1.88235V33.8824Z" fill="#00EC66"/>
<path d="M28.2353 30.1176C28.2353 29.0781 29.0781 28.2353 30.1176 28.2353H62.1176C63.1572 28.2353 64 29.0781 64 30.1176V34.39C64 35.1579 63.3562 35.7647 62.5882 35.7647C47.774 35.7647 35.7647 47.774 35.7647 62.5882C35.7647 63.3562 35.157 64 34.3891 64H30.1176C29.0781 64 28.2353 63.1572 28.2353 62.1176V30.1176Z" fill="#00EC66"/>
</svg>
